<?xml version="1.0" encoding="UTF-8" standalone="no"?>
<!-- Created with Inkscape (http://www.inkscape.org/) -->

<svg
   xmlns:dc="http://purl.org/dc/elements/1.1/"
   xmlns:cc="http://creativecommons.org/ns#"
   xmlns:rdf="http://www.w3.org/1999/02/22-rdf-syntax-ns#"
   xmlns:svg="http://www.w3.org/2000/svg"
   xmlns="http://www.w3.org/2000/svg"
   xmlns:xlink="http://www.w3.org/1999/xlink"
   xmlns:sodipodi="http://sodipodi.sourceforge.net/DTD/sodipodi-0.dtd"
   xmlns:inkscape="http://www.inkscape.org/namespaces/inkscape"
   width="518"
   height="330"
   id="svg4102"
   version="1.1"
   inkscape:version="0.48.3.1 r9886"
   sodipodi:docname="kelpie_horse.svg"
   inkscape:export-filename="/home/gaming/Pictures/kelpie_horse.png"
   inkscape:export-xdpi="90"
   inkscape:export-ydpi="90">
  <defs
     id="defs4104">
    <linearGradient
       id="linearGradient5088">
      <stop
         style="stop-color:#61b4ce;stop-opacity:1;"
         offset="0"
         id="stop5090" />
      <stop
         style="stop-color:#399bb9;stop-opacity:1;"
         offset="1"
         id="stop5092" />
    </linearGradient>
    <linearGradient
       inkscape:collect="always"
       xlink:href="#linearGradient5088"
       id="linearGradient5094"
       x1="418.57144"
       y1="359.64584"
       x2="425.35715"
       y2="328.93158"
       gradientUnits="userSpaceOnUse" />
  </defs>
  <sodipodi:namedview
     id="base"
     pagecolor="#ffffff"
     bordercolor="#666666"
     borderopacity="1.0"
     inkscape:pageopacity="0.0"
     inkscape:pageshadow="2"
     inkscape:zoom="1.4"
     inkscape:cx="91.681427"
     inkscape:cy="229.45362"
     inkscape:document-units="px"
     inkscape:current-layer="layer11"
     showgrid="false"
     inkscape:window-width="1535"
     inkscape:window-height="876"
     inkscape:window-x="65"
     inkscape:window-y="24"
     inkscape:window-maximized="1"
     fit-margin-top="20"
     fit-margin-left="50"
     fit-margin-right="25"
     fit-margin-bottom="20"
     showguides="true"
     inkscape:guide-bbox="true" />
  <metadata
     id="metadata4107">
    <rdf:RDF>
      <cc:Work
         rdf:about="">
        <dc:format>image/svg+xml</dc:format>
        <dc:type
           rdf:resource="http://purl.org/dc/dcmitype/StillImage" />
        <dc:title></dc:title>
      </cc:Work>
    </rdf:RDF>
  </metadata>
  <g
     inkscape:groupmode="layer"
     id="layer16"
     inkscape:label="Body_outline">
    <path
       style="fill:#195261;fill-opacity:1;stroke:none;display:inline"
       d="m 121.28125,32.34375 c -8.66057,0.630944 -17.50509,1.210513 -24.8125,6.403712 -7.084448,4.116103 -12.099845,10.239591 -19.363049,14.458422 -10.087924,5.859569 -23.96485,10.928498 -28.988315,21.640404 -4.525156,9.649324 5.262877,20.814183 14.684784,21.667121 14.435838,3.362533 31.320644,-5.135751 45.58801,-1.790553 3.2683,4.0805 3.23744,9.713904 4.05954,14.757174 3.50945,21.52914 7.39687,44.59338 17.86497,66.92894 10.33586,22.0534 12.21655,35.63024 9.92131,51.92585 -4.18554,9.72414 -2.13556,22.18245 -0.19797,28.03144 0.13518,8.04285 -0.54999,19.88156 -4.01623,24.72749 -17.98526,-0.30512 -28.34162,-2.17019 -46.267048,-1.85017 -7.860638,0.73544 2.418164,4.68363 5.596612,5.37888 54.022046,20.01124 113.581266,28.19914 169.490786,31.93717 28.2344,1.14465 67.87393,0.63895 95.59535,-5.84534 18.64673,-6.21831 33.08684,-15.57101 44.05804,-33.1875 8.85466,-15.28672 9.62434,-34.85526 2.79464,-51.54465 C 398.02671,203.34548 377.92325,183.03012 354.69643,174.625 303.88329,156.23718 296.51111,159.48565 268.71875,154 232.87196,143.86221 202.26907,119.57423 179.48025,90.298106 169.30215,78.106558 158.29512,65.954032 152.875,50.875 c -6.20446,-9.331725 -17.03826,-14.058383 -27,-18.25 -1.50517,-0.326818 -3.05624,-0.358703 -4.59375,-0.28125 z m 42.67796,183.98976 c 51.38981,43.76192 66.00798,44.29148 99.68811,50.87185 -36.53659,10.67051 -54.20645,11.13298 -92.13393,13.64867 -4.2816,-0.42301 -7.16057,1.20641 -7.97007,-3.34064 -3.3202,-10.56175 -3.76342,-21.27262 -0.97763,-32.05651 1.14333,-7.2375 -2.20212,-15.07702 0.13101,-22.15045 0.79618,-2.47049 -0.17188,-6.5556 1.26251,-6.97292 z"
       id="path4176-5"
       inkscape:connector-curvature="0"
       sodipodi:nodetypes="ccssccssccccccccsscccccccccccc" />
  </g>
  <g
     inkscape:groupmode="layer"
     id="layer10"
     inkscape:label="Belly"
     style="display:inline"
     transform="translate(-227.24948,-117.96411)">
    <path
       style="fill:#399bb9;fill-opacity:1;stroke:none"
       d="m 384.28571,323.37574 c 46.7948,42.06102 91.00263,61.69503 149.1124,63.44271 l 34.45903,-81.29985 c -76.84396,-6.68026 -178.50459,-33.388 -183.57143,17.85714 z"
       id="path4689"
       inkscape:connector-curvature="0"
       sodipodi:nodetypes="cccc" />
  </g>
  <g
     inkscape:groupmode="layer"
     id="layer15"
     inkscape:label="Fin_back"
     transform="translate(-227.24948,-117.96411)"
     style="display:inline">
    <path
       style="fill:#216a29;fill-opacity:1;stroke:none"
       d="m 503.21429,387.66146 c 0,0 -43.21429,17.14285 -66.78572,16.42856 -23.57143,-0.71428 -17.86479,-13.6291 -10,-14.64285 6.30395,-0.81256 44.8348,3.36087 76.78572,-1.78571 z"
       id="path4831"
       inkscape:connector-curvature="0"
       sodipodi:nodetypes="cssc" />
    <path
       style="fill:#39b746;fill-opacity:1;stroke:none"
       d="m 206.65016,272.96972 3.45786,7.04567 c 15.49622,-0.93438 24.3897,-3.86443 39.53644,-6.42068 -16.24844,1.20446 -30.76172,-0.62512 -42.9943,-0.62499 z"
       id="path5010"
       inkscape:connector-curvature="0"
       transform="translate(227.24948,117.96411)"
       sodipodi:nodetypes="cccc" />
  </g>
  <g
     style="display:inline"
     transform="translate(-227.24948,-117.96411)"
     inkscape:label="Leg outline"
     id="g5000"
     inkscape:groupmode="layer">
    <path
       style="fill:#195261;fill-opacity:1;stroke:none"
       d="m 176.80738,205.20921 c 1.22082,1.89906 4.89733,9.17034 4.43364,15.27792 -0.46958,6.18521 -2.56498,11.11475 -2.92212,19.68618 -0.35714,8.57143 0.52301,10.99901 1.99492,17.17504 1.49952,6.29191 -0.82261,22.90419 -4.39404,25.40419 -3.57143,2.5 32.25489,1.1977 32.25489,1.1977 0,0 -6.15808,-17.21529 -6.15808,-22.57243 0,-5.35714 1.29323,-13.37842 0.38777,-19.79977 -0.68981,-4.89203 -0.93815,-6.24674 -1.25897,-14.08175 -0.31295,-7.64269 -0.86754,-11.22834 3.23965,-14.99629 -9.64285,-1.42857 -27.57766,-7.29079 -27.57766,-7.29079 z"
       id="path5004"
       inkscape:connector-curvature="0"
       transform="translate(227.24948,117.96411)"
       sodipodi:nodetypes="csssscssscc" />
  </g>
  <g
     inkscape:groupmode="layer"
     id="layer11"
     inkscape:label="Leg"
     transform="translate(-227.24948,-117.96411)"
     style="display:inline">
    <path
       style="fill:url(#linearGradient5094);fill-opacity:1;stroke:none"
       d="m 403.39285,323.0186 c 3.47884,4.01323 6.92809,9.60972 5.89286,20.35714 -0.72634,10.45242 -2.60144,21.16011 0.71429,30.71429 0.46257,2.61905 0.9752,5.59524 0.53572,8.21428 0.095,12.2497 -0.83388,8.8113 -1.58548,15.97735 7.68169,-0.47841 14.0373,-0.77798 20.47969,-1.33667 -0.12627,-2.0203 -2.64422,-12.31925 -2.64422,-12.31925 -0.50827,-3.27381 -0.79488,-7.97619 -0.35714,-11.25 2.13335,-5.10284 0.85674,-13.25508 0.71428,-20.17857 -0.11575,-5.87312 0.38866,-8.0252 0.71429,-11.25 1.95186,-6.63076 0.28391,-10.15525 8.92858,-11.96429 -17.79398,-1.9052 -32.27428,-18.74502 -33.39287,-6.96428 z"
       id="path4717"
       inkscape:connector-curvature="0"
       sodipodi:nodetypes="cccccccccccc" />
  </g>
  <g
     inkscape:groupmode="layer"
     id="layer9"
     inkscape:label="Base horse"
     style="display:inline"
     transform="translate(-227.24948,-117.96411)">
    <path
       style="fill:#399bb9;fill-opacity:1;stroke:none"
       d="m 531.4496,328.44137 c 14.23917,86.2204 -119.25599,74.46775 -215.86041,70.40971 70.46841,22.54889 217.65306,37.3871 258.57398,24.08522 40.92092,-13.30188 49.61319,-25.42187 55.17331,-49.49493 5.05503,-21.88623 -8.49317,-45.85808 -25.34663,-62.43872 -21.57735,-21.22807 -68.67159,-30.28698 -98.57143,-35 -35.16919,-5.54362 -71.15326,-32.23244 -89.70413,-54.05548 C 397.16342,200.12413 383.46416,184.53677 380,173.37574 c -3.46416,-11.16103 -20.48551,-17.53622 -25,-20 -4.51449,-2.46378 -11.84198,0 -16.42857,0 -4.58659,0 -17.02798,5.33629 -24.28572,14.28571 l -29.99999,17.67858 c -6.24933,5.22128 -12.46515,14.04907 0.89285,23.57143 17.35622,6.57378 24.43883,0.17974 49.10714,0.89285 2.4931,0.18202 3.69147,1.01141 4.28572,2.14286 4.54166,25.85799 16.57905,67.81491 24.28571,82.14286 5.38451,10.01069 7.31776,24.46612 8.39286,37.85714 0.48096,5.21984 0.4102,10.25578 -0.53571,15 -3.44875,7.34248 -1.42553,16.50895 0.71428,25.71429 0.66196,6.90502 -0.52806,23.80982 -2.67857,30.35713 20,-0.89285 18.92858,-0.35714 18.92858,-0.35714 -2.57418,-11.36172 -3.49159,-22.39111 -3.03572,-31.25 1.46718,-6.28585 3.32229,-11.95769 1.24999,-23.92857 0.71429,-1.87508 2.14287,-12.04197 2.85716,-19.28571 3.52255,-58.89806 120.87797,19.2549 142.69959,0.2442 z"
       id="path4176"
       inkscape:connector-curvature="0"
       sodipodi:nodetypes="cczasszzzzcccccsccccccccc" />
  </g>
  <g
     inkscape:groupmode="layer"
     id="layer17"
     inkscape:label="Curl">
    <path
       style="fill:#195261;fill-opacity:1;stroke:none"
       d="m 265,266.78571 c 16.99686,-6.84896 25.85948,-12.60184 38.03572,-26.78571 -6.47137,12.70198 -12.15349,22.09008 -31.60715,30 z"
       id="path5078"
       inkscape:connector-curvature="0"
       sodipodi:nodetypes="cccc" />
  </g>
  <g
     inkscape:groupmode="layer"
     id="layer12"
     inkscape:label="Fins"
     style="display:inline"
     transform="translate(-227.24948,-117.96411)">
    <path
       style="fill:#195261;fill-opacity:1;stroke:none;display:inline"
       d="m 400.99948,398.85696 -33.57143,-0.17856 1.25,2.85714 19.28572,0.35714 z"
       id="path5014"
       inkscape:connector-curvature="0"
       sodipodi:nodetypes="ccccc" />
    <path
       style="fill:#216a29;fill-opacity:1;stroke:none"
       d="m 334.51336,387.72559 c -3.97747,-0.74223 -8.10097,-1.29825 -11.77232,-1.05357 -16.51987,1.10097 -9.79641,5.46229 -6.0625,7.0625 3.73391,1.60021 6.83036,5.49108 6.83036,5.49108 10.996,-0.60669 55.68521,5.32091 69.46175,2.05356 -18.33805,-0.53918 -40.74571,-10.24844 -58.45729,-13.55357 z m -6.33036,14.10714 c -2.1303,3.01087 -5.37559,5.05577 -11.16071,8.08929 -17.31858,9.08128 0.20238,9.31903 10.13839,6.61607 22.77917,-6.19677 39.89117,-0.54025 61.2634,-2.12053 -22.33213,0.51836 -47.29073,-13.5988 -60.24108,-12.58483 z"
       id="path4720"
       inkscape:connector-curvature="0"
       sodipodi:nodetypes="sssccscsscc" />
    <path
       style="fill:#216a29;fill-opacity:1;stroke:none"
       d="m 480.31658,272.13432 c 26.13806,4.45766 53.00263,7.64392 77.37691,15.18819 0,0 5.16417,-4.91333 14.05548,-4.63235 19.26059,0.60867 35.0978,7.69616 46.35127,14.24149 31.85205,18.52605 102.46038,14.75706 102.46038,14.75706 0,0 -71.92101,1.26644 -102.51123,-22.6858 -13.72648,-10.74788 -36.27823,-23.12316 -73.81221,-26.855 -21.0447,-2.09238 -63.9206,9.98641 -63.9206,9.98641 z"
       id="path4807"
       inkscape:connector-curvature="0"
       sodipodi:nodetypes="ccsscssc" />
    <path
       style="fill:#216a29;fill-opacity:1;stroke:none"
       d="m 472.14286,337.66146 c 2.25083,-11.63622 22.03979,-1.57399 37.85714,-0.71429 0,0 4.39914,8.65304 17.14285,10.35714 30.7143,4.10714 47.59387,11.43917 50.35715,16.07142 1.49987,2.51432 -5.75817,-2.46877 -35,-0.71427 -17.85715,1.07142 -29.40841,3.36896 -45,-3.75 -22.71459,-10.37124 -25.35714,-21.25 -25.35714,-21.25 z"
       id="path4809"
       inkscape:connector-curvature="0"
       sodipodi:nodetypes="ccssssc" />
    <path
       style="fill:#39b746;fill-opacity:1;stroke:none"
       d="m 480.08928,333.76786 c -3.67557,-0.49291 -8.49628,2.76264 -4.27678,6.98214 10.65686,10.65686 24.11119,17.77044 41.2634,18.19643 20.91897,0.51954 34.76425,-2.1989 55.06696,2.53125 -16.01993,-10.92639 -36.58871,-9.73996 -53.79018,-14.08482 -5.10677,-1.51562 -7.03599,-4.633 -10.07143,-8.54911 -11.03478,0.0666 -18.33328,-5.048 -28.19197,-5.07589 z"
       id="path4809-4"
       inkscape:connector-curvature="0"
       sodipodi:nodetypes="csscccc" />
    <path
       style="fill:#39b746;fill-opacity:1;stroke:none"
       d="m 97.678572,279.10715 c -1.380855,-3.36669 -12.60225,-6.16218 -10,-6.96429 16.943868,-5.22274 37.246148,7.03759 66.428578,11.07143 -23.29982,-0.36227 -34.19909,-3.94617 -56.428578,-4.10714 z"
       id="path5006"
       inkscape:connector-curvature="0"
       transform="translate(227.24948,117.96411)"
       sodipodi:nodetypes="cscc" />
    <path
       style="fill:#39b746;fill-opacity:1;stroke:none"
       d="m 143.01559,295.13524 c -23.62932,-3.90346 -33.92592,-11.454 -41.40845,-9.59953 -4.228098,5.3927 -14.431497,8.14652 -12.979692,9.16843 3.692194,2.5989 12.250272,-0.61172 23.158272,-2.02557 6.98343,-0.90516 14.13844,1.63744 31.22987,2.45667 z"
       id="path5008"
       inkscape:connector-curvature="0"
       transform="translate(227.24948,117.96411)"
       sodipodi:nodetypes="ccssc" />
    <path
       style="fill:#39b746;fill-opacity:1;stroke:none"
       d="m 261.12443,153.98092 c 21.87324,4.08314 38.50352,2.18599 65.91245,10.10152 0,0 5.93836,-4.48967 18.81782,-3.98459 9.00695,0.35322 26.73744,5.50293 46.08448,17.36911 18.94037,11.61676 47.72972,13.38453 47.72972,13.38453 0,0 -27.04624,-2.61773 -54.80078,-20.70813 -23.00701,-14.99596 -41.93131,-19.32415 -66.95107,-22.46321 -17.8779,-2.24301 -56.79262,6.30077 -56.79262,6.30077 z"
       id="path5012"
       inkscape:connector-curvature="0"
       transform="translate(227.24948,117.96411)"
       sodipodi:nodetypes="ccsscssc" />
  </g>
  <g
     inkscape:groupmode="layer"
     id="layer14"
     inkscape:label="Mane"
     transform="translate(-227.24948,-117.96411)"
     style="display:inline;opacity:1">
    <path
       style="fill:#195261;fill-opacity:1;stroke:none"
       d="m 364.28572,168.0186 c 24.74437,38.64987 78.36172,96.6434 106.07143,104.28572 21.5421,5.77218 37.88386,-14.89719 73.64013,2.39462 -10.9927,-22.9331 -39.54796,-21.37244 -48.07262,-28.77423 -8.52465,-7.4018 -6.48298,-14.12319 0.68249,-20.94182 -45.01197,-0.63562 -34.60103,-7.35151 -21.96429,-24.46429 -25.40636,0.7635 -44.80024,-8.41406 -40.00001,-25.71428 -23.17683,3.073 -22.48302,-6.12323 -19.99999,-15.00001 -43.23581,2.65892 -7.41327,-5.16638 -14.71465,-7.32668 -35.25923,-4.04512 -43.86164,-1.73908 -52.47789,-0.52149 5.30863,4.3504 12.50863,8.56827 16.8354,16.06246 z"
       id="path4778"
       inkscape:connector-curvature="0"
       sodipodi:nodetypes="cccsccccccc" />
    <path
       style="fill:#ffffff;fill-opacity:1;stroke:none"
       d="m 353.8125,155.28125 c 9.48182,3.51547 9.95982,6.62991 15.77807,14.65928 29.58194,40.82404 52.81034,66.59922 89.4279,92.65322 8.04442,4.84975 16.74907,7.11429 28.38329,6.10854 17.68268,-4.89408 35.49379,-4.8508 49.87283,1.27398 -11.58889,-12.93989 -25.77576,-14.52395 -36.65929,-17.3202 -11.10371,-2.85281 -16.84442,-5.42381 -20.01709,-10.80786 -3.21796,-6.31853 3.98276,-9.01876 8.35268,-13.71428 -9.21041,-0.88216 -24.4838,1.2344 -32.45535,-4.22322 -4.92234,-5.09519 -4.20651,-6.30032 -1.1555,-10.47459 4.89933,-4.16976 13.27811,-11.1401 8.94486,-11.17777 -12.26852,-1.10937 -32.00322,-3.95558 -36.13311,-17.14674 -1.37553,-2.99834 7.2414,-9.62931 2.26785,-7.94643 -6.7406,0.75091 -21.21972,0.36894 -21.77678,-7.97768 -0.58177,-2.80175 4.98393,-8.65581 0.26542,-7.0975 -6.52062,-0.36144 -19.97756,2.37746 -21.24521,-2.35348 -0.72637,-2.65714 8.7314,-3.16779 9.01401,-6.07914 -25.22095,-2.97143 -39.59885,-1.16141 -42.86458,1.62387 z"
       id="path4778-5"
       inkscape:connector-curvature="0"
       sodipodi:nodetypes="cscccscccccccccccc" />
  </g>
  <g
     inkscape:groupmode="layer"
     id="layer13"
     inkscape:label="Face"
     transform="translate(-227.24948,-117.96411)">
    <path
       style="fill:#216a29;fill-opacity:1;stroke:none"
       d="m 359.6735,137.47112 c 8.93321,4.89447 4.59427,22.85096 4.59427,22.85096 -5.76196,0.0342 -8.34603,-2.08749 -10.60705,-2.92848 2.01269,-5.60191 6.14704,-13.03241 6.01278,-19.92248 z"
       id="path4754-92"
       inkscape:connector-curvature="0"
       sodipodi:nodetypes="cccc" />
    <path
       style="fill:#216a29;fill-opacity:1;stroke:none"
       d="m 351.25,153.91145 c 0,0 5.71428,-16.78571 8.39286,-16.42857 2.36154,0.31488 -0.625,18.03572 -0.625,18.03572 -0.78583,0.56718 -3.99601,2.19283 -4.85448,1.89087 -1.15084,-0.40478 -1.96328,-1.24641 -2.91338,-3.49802 z"
       id="path4752"
       inkscape:connector-curvature="0"
       sodipodi:nodetypes="cscsc" />
    <path
       style="fill:#39b746;fill-opacity:1;stroke:none"
       d="m 360.17857,138.19717 c 6.25,5.17857 2.06889,21.36729 2.06889,21.36729 -5.76196,0.0342 -6.32572,-1.32987 -8.58674,-2.17086 2.01269,-5.60191 6.65211,-12.30636 6.51785,-19.19643 z"
       id="path4754"
       inkscape:connector-curvature="0"
       sodipodi:nodetypes="cccc" />
    <path
       style="fill:#216a29;fill-opacity:1;stroke:none"
       d="m 339.65852,153.55449 c 0,0 1.26969,-14.68454 2.52074,-15.00886 6.78461,-1.75883 7.90512,11.97021 8.22079,14.27462 z"
       id="path4752-5"
       inkscape:connector-curvature="0"
       sodipodi:nodetypes="cscc" />
    <path
       style="fill:#39b746;fill-opacity:1;stroke:none"
       d="m 343.03869,138.72487 c 5.69541,-0.40419 5.72698,14.83225 5.72698,14.83225 -1.10796,0.43679 -2.55782,0.12055 -4.19287,0.10554 1.57075,-5.60191 1.4412,-12.65654 -1.53411,-14.93779 z"
       id="path4754-9"
       inkscape:connector-curvature="0"
       sodipodi:nodetypes="cccc" />
  </g>
  <g
     style="display:inline"
     inkscape:label="Mane top"
     id="g4852"
     inkscape:groupmode="layer"
     transform="translate(-227.24948,-117.96411)">
    <path
       style="fill:#195261;fill-opacity:1;stroke:none"
       d="m 350.89286,152.75074 c 0,0 -9.10714,-2.05357 -15.53572,0.0893 -6.42857,2.14285 -19.64285,7.32142 -2.58928,11.07142 17.05357,3.75 18.21429,-7.32143 29.19643,-0.26786 10.98214,7.05357 16.33928,13.92858 16.33928,13.92858 0,0 -7.23353,-13.55545 -14.375,-17.67858 -6.57251,-3.79464 -7.39782,-2.4595 -11.16071,-4.82142 -0.84248,-0.52881 -1.875,-2.32144 -1.875,-2.32144 z"
       id="path4858"
       inkscape:connector-curvature="0"
       sodipodi:nodetypes="cssscssc" />
    <path
       style="fill:#195261;fill-opacity:1;stroke:none"
       d="m 362.44923,159.53383 c 4.82143,3.83928 7.26015,6.96296 11.88069,8.07903 4.62054,1.11607 15.44337,-4.78812 30.07834,2.88253 -16.41799,-4.71634 -27.12179,3.09811 -32.23715,1.67104 -5.11535,-1.42707 -6.18813,-7.57007 -9.72188,-12.6326 z"
       id="path4880"
       inkscape:connector-curvature="0"
       sodipodi:nodetypes="cscsc" />
    <path
       style="fill:#195261;fill-opacity:1;stroke:none;display:inline"
       d="m 373.31145,176.17933 c 11.21935,21.61965 18.22594,3.51525 38.61259,6.48985 -23.64259,-7.06048 -24.29903,5.3417 -38.61259,-6.48985 z"
       id="path4880-5"
       inkscape:connector-curvature="0"
       sodipodi:nodetypes="ccc" />
    <path
       style="fill:#195261;fill-opacity:1;stroke:none;display:inline"
       d="m 387.57921,195.10789 c 14.24204,26.09712 12.0535,-9.44826 56.40538,6.90301 -37.29502,-20.726 -41.70265,4.03568 -56.40538,-6.90301 z"
       id="path4880-3"
       inkscape:connector-curvature="0"
       sodipodi:nodetypes="ccc" />
    <path
       style="fill:#195261;fill-opacity:1;stroke:none;display:inline"
       d="m 399.2043,209.39362 c 8.30358,6.96428 14.12007,3.06821 19.93656,2.07392 8.79733,-1.50383 13.24012,5.3775 26.18655,0.91322 -10.02268,5.14579 -13.99031,0.0861 -25.02261,2.55948 -9.30045,2.0851 -11.43064,10.96166 -21.1005,-5.54662 z"
       id="path4880-56"
       inkscape:connector-curvature="0"
       sodipodi:nodetypes="cscsc" />
    <path
       style="fill:#195261;fill-opacity:1;stroke:none;display:inline"
       d="m 415.45432,227.22184 c 23.39439,27.05562 10.17858,-2.35134 58.39286,7.17177 -43.61681,-12.38459 -35.63275,5.1552 -58.39286,-7.17177 z"
       id="path4880-54"
       inkscape:connector-curvature="0"
       sodipodi:nodetypes="ccc" />
    <path
       style="fill:#195261;fill-opacity:1;stroke:none;display:inline"
       d="m 455.15055,261.18508 c 7.05412,2.20222 8.12895,-2.50389 13.62636,-4.02103 15.57298,-4.29774 25.58266,3.90173 47.56019,4.239 -26.29275,-3.03403 -35.72397,-12.22736 -50.29905,-6.16412 -8.01676,3.33497 -7.6042,4.02685 -14.92811,2.66313 z"
       id="path4880-54-6"
       inkscape:connector-curvature="0"
       sodipodi:nodetypes="cscscc" />
    <path
       style="fill:#ffffff;fill-opacity:1;stroke:none;display:inline"
       d="m 342.46875,152.95536 c -4.88971,0.52391 -16.41425,3.78133 -15.99554,6.01339 0.9822,5.23585 14.23714,5.59851 22.51786,2.32584 12.16321,-4.80708 21.59503,6.67666 24.97768,10.85268 -11.40132,-17.04143 -19.56389,-13.7089 -23.77679,-18.60268 -1.90762,0.36664 -4.66807,1.50708 -3.59556,2.81061 1.52848,1.85772 12.3159,1.59055 15.71726,5.07177 -3.51827,-3.17056 -15.10911,-2.05221 -18.26442,-4.25465 -2.15166,-1.50189 -0.83944,-2.48102 1.30807,-3.10104 -3.23037,-0.15461 -7.62222,1.42295 -11.76001,3.56178 2.55863,-1.96832 4.83561,-3.7325 8.87145,-4.6777 z"
       id="path4858-8"
       inkscape:connector-curvature="0"
       sodipodi:nodetypes="cssccscsccc" />
  </g>
</svg>
